<?xml version="1.0" standalone="no"?>
<!DOCTYPE svg PUBLIC "-//W3C//DTD SVG 1.1//EN"
"http://www.w3.org/Graphics/SVG/1.1/DTD/svg11.dtd">
<!-- Creator: fig2dev Version 3.2 Patchlevel 5d -->
<!-- CreationDate: Tue Oct  4 12:44:03 2016 -->
<!-- Magnification: 1.000 -->
<svg	xmlns="http://www.w3.org/2000/svg"
	xmlns:xlink="http://www.w3.org/1999/xlink"
	width="4.2in" height="4.2in"
	viewBox="164 415 5093 4995">
<g style="stroke-width:.025in; fill:none">
<!-- Line -->
<polyline points="1050,2700
1050,3900
2250,3900
1760,2930
" style="stroke:#ffff00;stroke-width:7;
stroke-linejoin:miter; stroke-linecap:butt;
fill:#ffff00;
"/>
<!-- Line -->
<polyline points="975,2100
1125,2100
" style="stroke:#000000;stroke-width:7;
stroke-linejoin:miter; stroke-linecap:butt;
"/>
<!-- Line -->
<polyline points="975,1500
1125,1500
" style="stroke:#000000;stroke-width:7;
stroke-linejoin:miter; stroke-linecap:butt;
"/>
<!-- Line -->
<polyline points="975,900
1125,900
" style="stroke:#000000;stroke-width:7;
stroke-linejoin:miter; stroke-linecap:butt;
"/>
<!-- Line -->
<polyline points="1650,3825
1650,3975
" style="stroke:#000000;stroke-width:7;
stroke-linejoin:miter; stroke-linecap:butt;
"/>
<!-- Line -->
<polyline points="2250,3825
2250,3975
" style="stroke:#000000;stroke-width:7;
stroke-linejoin:miter; stroke-linecap:butt;
"/>
<!-- Line -->
<polyline points="2850,3825
2850,3975
" style="stroke:#000000;stroke-width:7;
stroke-linejoin:miter; stroke-linecap:butt;
"/>
<!-- Line -->
<polyline points="3450,3825
3450,3975
" style="stroke:#000000;stroke-width:7;
stroke-linejoin:miter; stroke-linecap:butt;
"/>
<!-- Line -->
<polyline points="4050,3825
4050,3975
" style="stroke:#000000;stroke-width:7;
stroke-linejoin:miter; stroke-linecap:butt;
"/>
<!-- Line -->
<polyline points="4650,3825
4650,3975
" style="stroke:#000000;stroke-width:7;
stroke-linejoin:miter; stroke-linecap:butt;
"/>
<!-- Line -->
<polyline points="975,3300
1125,3300
" style="stroke:#000000;stroke-width:7;
stroke-linejoin:miter; stroke-linecap:butt;
"/>
<!-- Text -->
<text xml:space="preserve" x="2996" y="1788" fill="#000000"  font-family="Times" font-style="normal" font-weight="normal" font-size="156" text-anchor="start">Direction of improvement</text>
<!-- Text -->
<g transform="translate(1261,1777) rotate(-296.99840268)" >
<text xml:space="preserve" x="0" y="0" fill="#000000"  font-family="Times" font-style="normal" font-weight="normal" font-size="156" text-anchor="start">2x+y&#8804;4</text>
</g><!-- Text -->
<g transform="translate(3263,3347) rotate(-339.99888521)" >
<text xml:space="preserve" x="0" y="0" fill="#000000"  font-family="Times" font-style="normal" font-weight="normal" font-size="156" text-anchor="start">x+3y&#8804;6</text>
</g><!-- Text -->
<g transform="translate(2392,4640) rotate(-300.00070153)" >
<text xml:space="preserve" x="0" y="0" fill="#b00000"  font-family="Times" font-style="normal" font-weight="normal" font-size="156" text-anchor="start">3x+2y=4</text>
</g><!-- Line -->
<polyline points="975,2700
1125,2700
" style="stroke:#000000;stroke-width:7;
stroke-linejoin:miter; stroke-linecap:butt;
"/>
<!-- Line: box -->
<rect x="1696" y="2868" width="80" height="90" rx="0" 
style="stroke:#000000;stroke-width:7;
stroke-linejoin:miter; stroke-linecap:butt;
fill:#000000;
"/>
<!-- Line -->
<polyline points="2146,2148
2566,1878
2386,1678
2916,1808
2916,2278
2756,2038
2306,2348
" style="stroke:#b00000;stroke-width:7;
stroke-linejoin:miter; stroke-linecap:butt;
fill:#b00000;
"/>
<!-- Line -->
<polyline points="1336,450
1050,450
1050,4200
1335,4200
" style="stroke:#000000;stroke-width:7;
stroke-linejoin:miter; stroke-linecap:butt;
"/>
<!-- Arrowhead on XXXpoint 1050 4200 - 1440 4200-->
<polygon points="1307 4222
1420 4200
1307 4177
1330 4200
1307 4222

" style="stroke:#000000;stroke-width:7;stroke-miterlimit:8;
fill:#000000;"/>
<!-- Arrowhead on XXXpoint 1050 450 - 1440 450-->
<polygon points="1307 472
1420 450
1307 427
1330 450
1307 472

" style="stroke:#000000;stroke-width:7;stroke-miterlimit:8;
fill:#000000;"/>
<!-- Line -->
<polyline points="590,1315
870,1160
2430,4260
2151,4397
" style="stroke:#000000;stroke-width:7;
stroke-linejoin:miter; stroke-linecap:butt;
"/>
<!-- Arrowhead on XXXpoint 2430 4260 - 2057 4443-->
<polygon points="2166 4364
2075 4434
2185 4404
2155 4394
2166 4364

" style="stroke:#000000;stroke-width:7;stroke-miterlimit:8;
fill:#000000;"/>
<!-- Arrowhead on XXXpoint 870 1160 - 497 1364-->
<polygon points="601 1280
514 1354
623 1319
592 1310
601 1280

" style="stroke:#000000;stroke-width:7;stroke-miterlimit:8;
fill:#000000;"/>
<!-- Line -->
<polyline points="600,3690
600,3900
5175,3900
5175,3689
" style="stroke:#000000;stroke-width:7;
stroke-linejoin:miter; stroke-linecap:butt;
"/>
<!-- Arrowhead on XXXpoint 5175 3900 - 5175 3585-->
<polygon points="5197 3717
5175 3605
5152 3717
5175 3695
5197 3717

" style="stroke:#000000;stroke-width:7;stroke-miterlimit:8;
fill:#000000;"/>
<!-- Arrowhead on XXXpoint 600 3900 - 600 3585-->
<polygon points="622 3717
600 3605
577 3717
600 3695
622 3717

" style="stroke:#000000;stroke-width:7;stroke-miterlimit:8;
fill:#000000;"/>
<!-- Text -->
<text xml:space="preserve" x="1826" y="2808" fill="#000000"  font-family="Times" font-style="normal" font-weight="normal" font-size="156" text-anchor="start">(1.2,1.6)</text>
<!-- Text -->
<g transform="translate(1470,4613) rotate(-300.00070153)" >
<text xml:space="preserve" x="0" y="0" fill="#b00000"  font-family="Times" font-style="normal" font-weight="normal" font-size="156" text-anchor="start">3x+2y=0</text>
</g><!-- Text -->
<g transform="translate(2846,4554) rotate(-300.00070153)" >
<text xml:space="preserve" x="0" y="0" fill="#b00000"  font-family="Times" font-style="normal" font-weight="normal" font-size="156" text-anchor="start">3x+2y=6.8</text>
</g><!-- Text -->
<text xml:space="preserve" x="1101" y="767" fill="#000000"  font-family="Times" font-style="normal" font-weight="normal" font-size="156" text-anchor="start">x&#8805;0</text>
<!-- Text -->
<text xml:space="preserve" x="3541" y="4067" fill="#000000"  font-family="Times" font-style="normal" font-weight="normal" font-size="156" text-anchor="start">y&#8805;0</text>
<!-- Line -->
<polyline points="221,1547
2431,4617
" style="stroke:#b00000;stroke-width:7;
stroke-linejoin:miter; stroke-linecap:butt;
stroke-dasharray:30 30;fill:#ffffff;
"/>
<g style="stroke:#b00000; stroke-width:1" >
<defs>
<pattern id="tile1" x="0" y="0" width="200" height="200"
         patternUnits="userSpaceOnUse">
<path d="M 200 -100 0  20" />
<path d="M 200  -60 0  60" />
<path d="M 200  -20 0 100" />
<path d="M 200   20 0 140" />
<path d="M 200   60 0 180" />
<path d="M 200  100 0 220" />
<path d="M 200  140 0 260" />
<path d="M 200  180 0 300" />
</pattern>
</defs>
</g>
<polyline points="221,1547
2431,4617
" style="stroke:#b00000;stroke-width:7;
stroke-linejoin:miter; stroke-linecap:butt;
stroke-dasharray:30 30;fill:url(#tile1);
"/>
<!-- Line -->
<polyline points="176,2598
1531,4577
" style="stroke:#b00000;stroke-width:7;
stroke-linejoin:miter; stroke-linecap:butt;
stroke-dasharray:30 30;fill:#ffffff;
"/>
<g style="stroke:#b00000; stroke-width:1" >
<defs>
<pattern id="tile2" x="0" y="0" width="200" height="200"
         patternUnits="userSpaceOnUse">
<path d="M 200 -100 0  20" />
<path d="M 200  -60 0  60" />
<path d="M 200  -20 0 100" />
<path d="M 200   20 0 140" />
<path d="M 200   60 0 180" />
<path d="M 200  100 0 220" />
<path d="M 200  140 0 260" />
<path d="M 200  180 0 300" />
</pattern>
</defs>
</g>
<polyline points="176,2598
1531,4577
" style="stroke:#b00000;stroke-width:7;
stroke-linejoin:miter; stroke-linecap:butt;
stroke-dasharray:30 30;fill:url(#tile2);
"/>
<!-- Line -->
<polyline points="310,830
2841,4497
" style="stroke:#b00000;stroke-width:7;
stroke-linejoin:miter; stroke-linecap:butt;
fill:#ffffff;
"/>
<g style="stroke:#b00000; stroke-width:1" >
<defs>
<pattern id="tile3" x="0" y="0" width="200" height="200"
         patternUnits="userSpaceOnUse">
<path d="M 200 -100 0  20" />
<path d="M 200  -60 0  60" />
<path d="M 200  -20 0 100" />
<path d="M 200   20 0 140" />
<path d="M 200   60 0 180" />
<path d="M 200  100 0 220" />
<path d="M 200  140 0 260" />
<path d="M 200  180 0 300" />
</pattern>
</defs>
</g>
<polyline points="310,830
2841,4497
" style="stroke:#b00000;stroke-width:7;
stroke-linejoin:miter; stroke-linecap:butt;
fill:url(#tile3);
"/>
<!-- Line -->
<polyline points="369,2733
451,2487
5100,4050
5028,4262
" style="stroke:#000000;stroke-width:7;
stroke-linejoin:miter; stroke-linecap:butt;
"/>
<!-- Arrowhead on XXXpoint 5100 4050 - 4996 4361-->
<polygon points="5016 4228
5002 4342
5059 4242
5030 4256
5016 4228

" style="stroke:#000000;stroke-width:7;stroke-miterlimit:8;
fill:#000000;"/>
<!-- Arrowhead on XXXpoint 451 2487 - 336 2831-->
<polygon points="356 2698
342 2812
399 2712
370 2726
356 2698

" style="stroke:#000000;stroke-width:7;stroke-miterlimit:8;
fill:#000000;"/>
</g>
</svg>
