<?xml version="1.0" encoding="utf-8"?>
<!-- Generator: Adobe Illustrator 15.0.2, SVG Export Plug-In . SVG Version: 6.00 Build 0)  -->
<!DOCTYPE svg PUBLIC "-//W3C//DTD SVG 1.1//EN" "http://www.w3.org/Graphics/SVG/1.1/DTD/svg11.dtd" [
	<!ENTITY ns_flows "http://ns.adobe.com/Flows/1.0/">
	<!ENTITY ns_extend "http://ns.adobe.com/Extensibility/1.0/">
	<!ENTITY ns_ai "http://ns.adobe.com/AdobeIllustrator/10.0/">
	<!ENTITY ns_graphs "http://ns.adobe.com/Graphs/1.0/">
	<!ENTITY ns_vars "http://ns.adobe.com/Variables/1.0/">
	<!ENTITY ns_imrep "http://ns.adobe.com/ImageReplacement/1.0/">
	<!ENTITY ns_sfw "http://ns.adobe.com/SaveForWeb/1.0/">
	<!ENTITY ns_custom "http://ns.adobe.com/GenericCustomNamespace/1.0/">
	<!ENTITY ns_adobe_xpath "http://ns.adobe.com/XPath/1.0/">
]>
<svg version="1.1"
	 xmlns:x="&ns_extend;" xmlns:i="&ns_ai;" xmlns:graph="&ns_graphs;" i:viewOrigin="0 0" i:rulerOrigin="0 566.9297" i:pageBounds="0 0 850.3896 -566.9297"
	 xmlns="http://www.w3.org/2000/svg" xmlns:xlink="http://www.w3.org/1999/xlink" xmlns:a="http://ns.adobe.com/AdobeSVGViewerExtensions/3.0/"
	 width="850.39px" height="566.93px" viewBox="0 0 850.39 566.93" enable-background="new 0 0 850.39 566.93"
	 xml:space="preserve">
<g id="Layer_1" i:layer="yes">
	<g>
		<rect y="-1" i:knockout="Off" fill="#1C75BC" width="850.394" height="566.929"/>
		<path i:knockout="Off" fill="#FFFFFF" d="M766.553,485.76c-13.37-4.949-27.399-9.172-41.586-11.16
			c-59.626-8.361-119.26-16.727-178.897-25.088c-29.515-4.141-59.038-8.279-88.554-12.412c-6.86-0.965-10.466-1.615-16.229,2.852
			c-8.589,6.65-17.177,13.303-25.765,19.956c-2.699-2.161-5.397-4.322-8.096-6.481c-7.404-5.93-19.497-8.512-28.391-11.172
			c-8.511-2.551-20.736-7.541-29.908-6.277c-21.11,2.922-42.21,5.846-63.312,8.775c-69.18,9.58-138.362,19.156-207.535,28.742
			c-2.367,0.324-4.731,0.654-7.085,0.982c-3.621,0.5,17.784,9.648,19.767,10.309c10.522,3.496,26.303,10.395,37.771,8.805
			c82.342-11.404,164.693-22.81,247.042-34.212c7.011,5.61,14.021,11.221,21.032,16.833c7.356,5.883,19.467,8.449,28.29,11.088
			c5.365,1.604,25.702,9.961,31.149,5.746c16.184-12.54,32.364-25.068,48.544-37.604c90.388,12.671,180.77,25.351,271.158,38.022
			C788.243,495.188,768.317,486.414,766.553,485.76z"/>
		<g>
			<path i:knockout="Off" fill="#FFFFFF" d="M454.092,245.988c-3.492-3.898-5.236-9.493-5.236-16.786
				c0-7.292,1.744-12.887,5.236-16.786c3.49-3.898,8.496-5.849,15.018-5.849c6.52,0,11.516,1.95,14.986,5.849
				c3.471,3.899,5.205,9.494,5.205,16.786c0,7.293-1.734,12.888-5.205,16.786c-3.471,3.899-8.467,5.849-14.986,5.849
				C462.588,251.836,457.582,249.887,454.092,245.988z M461.443,239.887c1.744,2.444,4.301,3.667,7.666,3.667
				s5.91-1.223,7.635-3.667s2.588-6.007,2.588-10.686s-0.863-8.229-2.588-10.653s-4.27-3.636-7.635-3.636s-5.922,1.212-7.666,3.636
				c-1.746,2.424-2.619,5.975-2.619,10.653S459.697,237.443,461.443,239.887z"/>
			<path i:knockout="Off" fill="#FFFFFF" d="M496.557,262.332v-32.94c0-3.161-0.127-5.374-0.379-6.639s-0.379-2.023-0.379-2.276
				c0-0.673,0.852-1.179,2.555-1.517c1.705-0.337,2.977-0.506,3.818-0.506s1.398,0.085,1.672,0.253
				c0.273,0.169,0.494,0.433,0.662,0.79c0.168,0.358,0.295,0.664,0.379,0.917s0.18,0.632,0.285,1.138
				c0.104,0.506,0.178,0.822,0.221,0.948c0.756-1.391,1.881-2.529,3.375-3.414c1.492-0.885,3.186-1.328,5.08-1.328
				c3.49,0,6.33,1.508,8.518,4.521s3.281,7.166,3.281,12.455c0,5.29-1.168,9.463-3.502,12.519c-2.334,3.057-5.605,4.584-9.812,4.584
				c-2.482,0-4.627-0.653-6.436-1.96v12.455c0,1.349-1.262,2.023-3.785,2.023h-1.768
				C497.818,264.355,496.557,263.68,496.557,262.332z M510.312,244.439c3.91,0,5.867-3.171,5.867-9.516
				c0-6.343-1.703-9.516-5.111-9.516c-2.02,0-3.744,1.244-5.174,3.73v14.1C507.324,244.039,508.797,244.439,510.312,244.439z"/>
			<path i:knockout="Off" fill="#FFFFFF" d="M535.014,247.379c-2.713-2.972-4.068-7.261-4.068-12.867
				c0-5.605,1.355-9.8,4.068-12.581c2.715-2.782,6.438-4.174,11.17-4.174s8.201,1.518,10.41,4.553s3.312,6.955,3.312,11.76
				c0,0.506-0.432,1.255-1.293,2.245c-0.863,0.99-1.504,1.485-1.924,1.485H540.6c0.209,2.402,0.924,4.109,2.145,5.121
				c1.219,1.012,2.775,1.518,4.67,1.518c1.893,0,3.701-0.326,5.426-0.98c1.725-0.652,2.607-0.979,2.65-0.979
				c0.631,0,1.334,0.622,2.113,1.865c0.777,1.244,1.168,2.224,1.168,2.939c0,1.392-1.316,2.498-3.943,3.319
				c-2.631,0.822-5.102,1.233-7.414,1.233C541.861,251.836,537.729,250.35,535.014,247.379z M550.82,231.541
				c0-1.938-0.379-3.487-1.135-4.646c-0.758-1.159-1.895-1.739-3.408-1.739c-3.113,0-5.006,2.129-5.678,6.386H550.82z"/>
			<path i:knockout="Off" fill="#FFFFFF" d="M566.217,249.434v-20.043c0-3.161-0.127-5.374-0.379-6.639s-0.379-2.023-0.379-2.276
				c0-0.673,0.852-1.179,2.555-1.517c1.705-0.337,2.977-0.506,3.818-0.506s1.398,0.085,1.672,0.253
				c0.273,0.169,0.494,0.433,0.662,0.79c0.168,0.358,0.295,0.654,0.379,0.885c0.084,0.232,0.18,0.623,0.285,1.17
				c0.104,0.548,0.178,0.885,0.221,1.012c1.01-1.349,2.355-2.486,4.037-3.414c1.682-0.927,3.471-1.392,5.363-1.392
				c3.156,0,5.49,0.833,7.004,2.498c1.516,1.665,2.271,4.247,2.271,7.745v21.434c0,1.35-1.262,2.022-3.785,2.022h-1.768
				c-2.523,0-3.785-0.673-3.785-2.022v-20.043c0-2.613-1.262-3.92-3.785-3.92c-2.105,0-3.787,1.223-5.049,3.667v20.296
				c0,1.35-1.262,2.022-3.785,2.022h-1.768C567.479,251.457,566.217,250.784,566.217,249.434z"/>
			<path i:knockout="Off" fill="#FFFFFF" d="M450.369,330.766v-39.199c0-1.686,0.84-2.529,2.523-2.529h23.094
				c1.262,0,1.893,1.053,1.893,3.16v1.961c0,2.107-0.631,3.16-1.893,3.16h-15.9v9.168h14.197c1.262,0,1.893,1.055,1.893,3.162v1.959
				c0,2.109-0.631,3.162-1.893,3.162h-14.197v10.242h15.965c1.262,0,1.893,1.055,1.893,3.162v1.959c0,2.109-0.631,3.162-1.893,3.162
				h-23.158C451.209,333.295,450.369,332.451,450.369,330.766z"/>
			<path i:knockout="Off" fill="#FFFFFF" d="M494.916,333.801c-3.492,0-6.332-1.508-8.518-4.521
				c-2.189-3.014-3.281-7.164-3.281-12.455c0-5.289,1.166-9.463,3.502-12.52c2.334-3.055,5.604-4.584,9.811-4.584
				c2.482,0,4.627,0.654,6.438,1.961v-14.035c0-1.35,1.262-2.023,3.785-2.023h1.766c2.525,0,3.787,0.674,3.787,2.023v34.52
				c0,2.615,0.125,4.807,0.379,6.576l0.379,2.592c0,0.676-0.854,1.182-2.557,1.518c-1.703,0.338-2.977,0.506-3.816,0.506
				c-0.842,0-1.4-0.084-1.674-0.252s-0.494-0.443-0.662-0.822s-0.295-0.695-0.379-0.949c-0.084-0.252-0.178-0.664-0.283-1.232
				s-0.18-0.916-0.221-1.043c-0.758,1.391-1.883,2.529-3.375,3.414C498.502,333.357,496.809,333.801,494.916,333.801z
				 M497.691,326.15c2.02,0,3.744-1.244,5.176-3.73v-14.1c-1.432-0.801-2.904-1.201-4.418-1.201c-3.912,0-5.867,3.172-5.867,9.516
				S494.285,326.15,497.691,326.15z"/>
			<path i:knockout="Off" fill="#FFFFFF" d="M519.838,323.559v-21.434c0-1.35,1.262-2.023,3.787-2.023h1.766
				c2.525,0,3.787,0.674,3.787,2.023v20.041c0,2.615,1.262,3.92,3.785,3.92c2.104,0,3.785-1.221,5.049-3.666v-20.295
				c0-1.35,1.262-2.023,3.785-2.023h1.768c2.523,0,3.785,0.674,3.785,2.023v20.041c0,2.615,0.127,4.807,0.379,6.576l0.379,2.592
				c0,0.676-0.854,1.182-2.557,1.518c-1.703,0.338-2.977,0.506-3.816,0.506c-0.842,0-1.4-0.084-1.672-0.252
				c-0.275-0.168-0.496-0.453-0.664-0.854s-0.295-0.717-0.379-0.949c-0.084-0.23-0.178-0.643-0.283-1.232s-0.18-0.949-0.221-1.076
				c-1.01,1.35-2.346,2.488-4.006,3.416c-1.662,0.926-3.461,1.391-5.396,1.391c-3.154,0-5.488-0.832-7.004-2.498
				C520.596,329.639,519.838,327.057,519.838,323.559z"/>
			<path i:knockout="Off" fill="#FFFFFF" d="M557.824,329.658c-2.609-2.76-3.912-6.996-3.912-12.707s1.314-10.012,3.943-12.898
				s6.719-4.332,12.271-4.332c2.566,0,4.953,0.391,7.162,1.17c2.209,0.781,3.312,1.846,3.312,3.193c0,0.633-0.432,1.604-1.293,2.908
				c-0.863,1.307-1.547,1.961-2.051,1.961c-0.168,0-0.547-0.148-1.137-0.443c-1.852-0.926-3.848-1.391-5.994-1.391
				c-2.145,0-3.785,0.781-4.922,2.34c-1.135,1.559-1.703,3.982-1.703,7.27c0,3.289,0.537,5.723,1.609,7.303
				c1.072,1.582,2.713,2.371,4.922,2.371s4.344-0.484,6.404-1.453c0.672-0.254,1.051-0.381,1.137-0.381
				c0.631,0,1.334,0.623,2.113,1.865c0.777,1.244,1.166,2.246,1.166,3.004c0,0.76-0.463,1.455-1.387,2.086
				c-0.926,0.633-2.041,1.098-3.346,1.393c-2.691,0.588-4.795,0.885-6.309,0.885C564.428,333.801,560.432,332.42,557.824,329.658z"
				/>
			<path i:knockout="Off" fill="#FFFFFF" d="M584.514,324.568c0-1.178,0.104-2.254,0.314-3.223c0.211-0.971,0.695-2.014,1.451-3.131
				c0.758-1.115,1.768-2.033,3.029-2.75c2.986-1.77,7.424-2.656,13.314-2.656v-2.086c0-2.402-1.641-3.604-4.922-3.604
				c-2.314,0-4.566,0.506-6.752,1.518c-0.758,0.338-1.199,0.506-1.326,0.506c-0.631,0-1.336-0.652-2.113-1.961
				c-0.779-1.305-1.166-2.338-1.166-3.098c0-1.139,1.166-2.15,3.502-3.035c2.334-0.885,5.184-1.328,8.549-1.328
				c9.043,0,13.566,3.521,13.566,10.561v11.885c0,2.615,0.127,4.807,0.379,6.576l0.379,2.592c0,0.676-0.854,1.182-2.557,1.518
				c-1.703,0.338-2.977,0.506-3.816,0.506c-0.842,0-1.4-0.084-1.672-0.252c-0.275-0.168-0.496-0.453-0.664-0.854
				s-0.295-0.717-0.379-0.949c-0.084-0.23-0.178-0.643-0.283-1.232s-0.18-0.949-0.221-1.076c-0.758,1.35-2.061,2.488-3.912,3.416
				c-1.852,0.926-3.639,1.391-5.363,1.391c-3.24,0-5.605-0.844-7.1-2.529C585.26,329.586,584.514,327.352,584.514,324.568z
				 M593.789,323.621c0,0.844,0.271,1.518,0.82,2.023c0.545,0.506,1.365,0.758,2.461,0.758c1.092,0,2.166-0.379,3.217-1.137
				c1.051-0.76,1.83-1.707,2.336-2.846v-3.479C596.732,318.941,593.789,320.502,593.789,323.621z"/>
			<path i:knockout="Off" fill="#FFFFFF" d="M632.721,326.402l1.703-0.252c0.547,0,1.01,0.621,1.389,1.865s0.568,2.139,0.568,2.688
				c0,2.064-2.02,3.098-6.059,3.098c-6.143,0-9.213-3.414-9.213-10.242v-15.934h-1.01c-1.262,0-1.893-1.053-1.893-3.162v-1.074
				c0-2.107,0.631-3.162,1.893-3.162h1.01l0.82-6.006c0.211-1.348,1.346-2.023,3.408-2.023h1.955c2.104,0,3.156,0.676,3.156,2.023
				v6.006h3.092c1.262,0,1.893,1.055,1.893,3.162v1.074c0,2.109-0.631,3.162-1.893,3.162h-3.092v16.059
				C630.449,325.496,631.205,326.402,632.721,326.402z"/>
			<path i:knockout="Off" fill="#FFFFFF" d="M645.34,294.791c-2.523,0-3.785-0.674-3.785-2.023v-5.121
				c0-1.35,1.262-2.023,3.785-2.023h1.768c2.523,0,3.785,0.674,3.785,2.023v5.121c0,1.35-1.262,2.023-3.785,2.023H645.34z
				 M641.555,331.398v-29.273c0-1.35,1.262-2.023,3.785-2.023h1.768c2.523,0,3.785,0.674,3.785,2.023v29.273
				c0,1.35-1.262,2.021-3.785,2.021h-1.768C642.816,333.42,641.555,332.748,641.555,331.398z"/>
			<path i:knockout="Off" fill="#FFFFFF" d="M661.115,329.406c-2.609-2.93-3.912-7.154-3.912-12.678
				c0-5.521,1.303-9.736,3.912-12.645c2.607-2.908,6.414-4.363,11.42-4.363s8.803,1.455,11.389,4.363
				c2.588,2.908,3.881,7.123,3.881,12.645c0,5.523-1.293,9.748-3.881,12.678c-2.586,2.93-6.383,4.395-11.389,4.395
				S663.723,332.336,661.115,329.406z M666.668,316.762c0,6.428,1.945,9.641,5.836,9.641s5.836-3.213,5.836-9.641
				s-1.945-9.643-5.836-9.643S666.668,310.334,666.668,316.762z"/>
			<path i:knockout="Off" fill="#FFFFFF" d="M694.367,331.398v-20.043c0-3.162-0.127-5.375-0.379-6.639
				c-0.252-1.266-0.379-2.023-0.379-2.277c0-0.672,0.852-1.178,2.555-1.516c1.705-0.338,2.977-0.506,3.818-0.506
				s1.398,0.084,1.672,0.252c0.273,0.17,0.494,0.434,0.662,0.791s0.295,0.654,0.379,0.885c0.084,0.232,0.18,0.623,0.285,1.17
				c0.104,0.547,0.178,0.885,0.221,1.012c1.01-1.35,2.355-2.486,4.037-3.414s3.471-1.393,5.363-1.393
				c3.156,0,5.49,0.834,7.004,2.498c1.516,1.666,2.271,4.248,2.271,7.746v21.434c0,1.35-1.262,2.021-3.785,2.021h-1.768
				c-2.523,0-3.785-0.672-3.785-2.021v-20.043c0-2.613-1.262-3.92-3.785-3.92c-2.105,0-3.787,1.223-5.049,3.666v20.297
				c0,1.35-1.262,2.021-3.785,2.021h-1.768C695.629,333.42,694.367,332.748,694.367,331.398z"/>
			<path i:knockout="Off" fill="#FFFFFF" d="M728.25,324.568c0-1.178,0.105-2.254,0.316-3.223c0.209-0.971,0.693-2.014,1.451-3.131
				c0.756-1.115,1.766-2.033,3.027-2.75c2.986-1.77,7.424-2.656,13.314-2.656v-2.086c0-2.402-1.641-3.604-4.922-3.604
				c-2.314,0-4.564,0.506-6.752,1.518c-0.756,0.338-1.197,0.506-1.324,0.506c-0.631,0-1.336-0.652-2.113-1.961
				c-0.779-1.305-1.168-2.338-1.168-3.098c0-1.139,1.168-2.15,3.502-3.035s5.184-1.328,8.551-1.328
				c9.043,0,13.564,3.521,13.564,10.561v11.885c0,2.615,0.127,4.807,0.379,6.576l0.379,2.592c0,0.676-0.852,1.182-2.555,1.518
				c-1.705,0.338-2.977,0.506-3.818,0.506s-1.398-0.084-1.672-0.252s-0.494-0.453-0.662-0.854c-0.17-0.4-0.295-0.717-0.379-0.949
				c-0.084-0.23-0.18-0.643-0.283-1.232c-0.105-0.59-0.18-0.949-0.221-1.076c-0.758,1.35-2.062,2.488-3.912,3.416
				c-1.852,0.926-3.641,1.391-5.365,1.391c-3.238,0-5.605-0.844-7.098-2.529C728.996,329.586,728.25,327.352,728.25,324.568z
				 M737.525,323.621c0,0.844,0.273,1.518,0.82,2.023s1.367,0.758,2.461,0.758s2.166-0.379,3.219-1.137
				c1.051-0.76,1.83-1.707,2.334-2.846v-3.479C740.469,318.941,737.525,320.502,737.525,323.621z"/>
			<path i:knockout="Off" fill="#FFFFFF" d="M775.572,326.402l1.705-0.252c0.545,0,1.01,0.621,1.387,1.865
				c0.379,1.244,0.568,2.139,0.568,2.688c0,2.064-2.02,3.098-6.057,3.098c-6.143,0-9.213-3.414-9.213-10.242v-35.912
				c0-1.35,1.262-2.023,3.785-2.023h1.768c2.523,0,3.785,0.674,3.785,2.023v36.037C773.301,325.496,774.059,326.402,775.572,326.402
				z"/>
			<path i:knockout="Off" fill="#FFFFFF" d="M450.369,413.361v-39.832c0-1.686,0.84-2.529,2.523-2.529h12.305
				c10.475,0,15.711,3.963,15.711,11.887c0,2.361-0.662,4.416-1.986,6.164c-1.326,1.75-3.125,3.047-5.396,3.889v0.254
				c0.799,0.295,1.619,1,2.461,2.117s1.535,2.35,2.082,3.699l5.553,13.91c0.211,0.547,0.316,0.947,0.316,1.201
				c0,0.844-1.262,1.264-3.785,1.264h-2.588c-2.104,0-3.324-0.443-3.66-1.328l-4.984-12.328c-0.715-1.391-1.482-2.371-2.303-2.941
				c-0.82-0.568-2.178-0.854-4.07-0.854h-2.461v15.428c0,1.35-1.262,2.023-3.785,2.023h-2.146
				C451.631,415.385,450.369,414.711,450.369,413.361z M460.086,389.525h5.994c1.305,0,2.439-0.527,3.408-1.58
				c0.967-1.053,1.451-2.328,1.451-3.826c0-1.494-0.475-2.676-1.42-3.541c-0.947-0.863-2.24-1.295-3.881-1.295h-5.553V389.525z"/>
			<path i:knockout="Off" fill="#FFFFFF" d="M491.225,411.307c-2.713-2.971-4.07-7.26-4.07-12.867c0-5.605,1.357-9.799,4.07-12.58
				c2.713-2.783,6.436-4.174,11.168-4.174s8.203,1.518,10.412,4.553c2.207,3.035,3.312,6.955,3.312,11.76
				c0,0.506-0.432,1.254-1.295,2.244c-0.861,0.99-1.504,1.486-1.924,1.486h-16.09c0.211,2.402,0.924,4.109,2.145,5.121
				s2.777,1.518,4.67,1.518s3.701-0.326,5.426-0.98c1.725-0.652,2.609-0.98,2.65-0.98c0.631,0,1.336,0.623,2.115,1.865
				c0.777,1.244,1.166,2.225,1.166,2.939c0,1.393-1.314,2.498-3.943,3.32s-5.102,1.232-7.414,1.232
				C498.07,415.764,493.938,414.277,491.225,411.307z M507.031,395.469c0-1.938-0.379-3.488-1.137-4.646
				c-0.758-1.16-1.893-1.74-3.406-1.74c-3.115,0-5.008,2.129-5.68,6.387H507.031z"/>
			<path i:knockout="Off" fill="#FFFFFF" d="M520.469,411.275c0-0.674,0.4-1.623,1.199-2.846s1.514-1.834,2.145-1.834
				c0.084,0,0.842,0.297,2.273,0.887c1.428,0.59,2.732,0.885,3.912,0.885c2.564,0,3.848-0.949,3.848-2.846
				c0-1.012-0.432-1.822-1.293-2.434c-0.863-0.611-1.914-1.127-3.154-1.549c-1.242-0.422-2.482-0.928-3.723-1.518
				c-1.242-0.59-2.295-1.559-3.156-2.908s-1.293-3.076-1.293-5.186c0-3.16,1.041-5.658,3.123-7.492s4.91-2.75,8.486-2.75
				c1.682,0,3.281,0.168,4.797,0.506c3.027,0.674,4.543,1.834,4.543,3.477c0,0.549-0.316,1.467-0.947,2.752
				s-1.221,1.928-1.768,1.928c-0.041,0-0.662-0.221-1.861-0.664c-1.197-0.443-2.365-0.664-3.502-0.664
				c-2.271,0-3.406,0.76-3.406,2.275c0,0.844,0.43,1.529,1.293,2.057c0.861,0.527,1.914,1.01,3.154,1.453
				c1.242,0.443,2.482,0.99,3.725,1.645c1.24,0.654,2.291,1.686,3.154,3.098c0.861,1.412,1.293,3.15,1.293,5.217
				c0,3.33-1.084,5.996-3.25,7.998s-4.879,3.002-8.139,3.002s-5.984-0.391-8.172-1.17S520.469,412.709,520.469,411.275z"/>
			<path i:knockout="Off" fill="#FFFFFF" d="M551.135,411.369c-2.609-2.928-3.912-7.154-3.912-12.676s1.303-9.736,3.912-12.645
				c2.607-2.908,6.414-4.363,11.422-4.363c5.004,0,8.801,1.455,11.389,4.363c2.586,2.908,3.881,7.123,3.881,12.645
				s-1.295,9.748-3.881,12.676c-2.588,2.932-6.385,4.395-11.389,4.395C557.549,415.764,553.742,414.301,551.135,411.369z
				 M556.688,398.725c0,6.428,1.945,9.643,5.836,9.643s5.838-3.215,5.838-9.643s-1.947-9.643-5.838-9.643
				S556.688,392.297,556.688,398.725z"/>
			<path i:knockout="Off" fill="#FFFFFF" d="M584.197,405.521v-21.434c0-1.348,1.262-2.023,3.787-2.023h1.766
				c2.525,0,3.787,0.676,3.787,2.023v20.043c0,2.613,1.262,3.92,3.785,3.92c2.104,0,3.785-1.223,5.049-3.668v-20.295
				c0-1.348,1.262-2.023,3.785-2.023h1.768c2.523,0,3.785,0.676,3.785,2.023v20.043c0,2.613,0.127,4.805,0.379,6.576l0.379,2.592
				c0,0.674-0.854,1.18-2.557,1.518s-2.977,0.506-3.816,0.506c-0.842,0-1.4-0.084-1.672-0.254c-0.275-0.168-0.496-0.453-0.664-0.854
				s-0.295-0.717-0.379-0.947c-0.084-0.232-0.178-0.643-0.283-1.234c-0.105-0.59-0.18-0.947-0.221-1.074
				c-1.01,1.35-2.346,2.488-4.006,3.414c-1.662,0.926-3.461,1.391-5.396,1.391c-3.154,0-5.488-0.832-7.004-2.496
				C584.955,411.602,584.197,409.021,584.197,405.521z"/>
			<path i:knockout="Off" fill="#FFFFFF" d="M619.533,413.361v-20.043c0-3.16-0.127-5.373-0.379-6.639
				c-0.252-1.264-0.379-2.023-0.379-2.275c0-0.674,0.852-1.18,2.555-1.518c1.705-0.336,2.977-0.506,3.818-0.506
				s1.398,0.086,1.672,0.254s0.494,0.432,0.662,0.789c0.168,0.359,0.295,0.654,0.379,0.885c0.084,0.232,0.18,0.623,0.285,1.17
				c0.104,0.549,0.178,0.885,0.221,1.012c1.766-3.203,4.059-4.805,6.877-4.805c1.346,0,2.281,0.348,2.809,1.043
				c0.525,0.695,0.789,1.486,0.789,2.371s-0.189,1.992-0.568,3.32c-0.379,1.326-0.842,1.99-1.389,1.99
				c-0.252,0-0.693-0.084-1.324-0.252s-1.18-0.254-1.641-0.254c-2.105,0-3.787,1.055-5.049,3.162v20.295
				c0,1.35-1.262,2.023-3.785,2.023h-1.768C620.795,415.385,619.533,414.711,619.533,413.361z"/>
			<path i:knockout="Off" fill="#FFFFFF" d="M645.277,411.623c-2.609-2.76-3.912-6.996-3.912-12.709
				c0-5.711,1.314-10.01,3.943-12.898c2.629-2.887,6.719-4.33,12.271-4.33c2.566,0,4.953,0.391,7.162,1.17s3.312,1.844,3.312,3.193
				c0,0.631-0.432,1.602-1.293,2.908c-0.863,1.307-1.547,1.959-2.051,1.959c-0.168,0-0.547-0.146-1.137-0.441
				c-1.852-0.928-3.848-1.393-5.994-1.393c-2.145,0-3.785,0.781-4.922,2.34c-1.135,1.561-1.703,3.984-1.703,7.271
				s0.537,5.723,1.609,7.303s2.713,2.371,4.922,2.371s4.344-0.484,6.404-1.455c0.672-0.252,1.051-0.379,1.137-0.379
				c0.631,0,1.334,0.623,2.113,1.865c0.777,1.244,1.166,2.244,1.166,3.004c0,0.758-0.463,1.453-1.387,2.086
				c-0.926,0.633-2.041,1.096-3.346,1.391c-2.691,0.59-4.795,0.885-6.309,0.885C651.881,415.764,647.885,414.385,645.277,411.623z"
				/>
			<path i:knockout="Off" fill="#FFFFFF" d="M676.035,411.307c-2.713-2.971-4.068-7.26-4.068-12.867
				c0-5.605,1.355-9.799,4.068-12.58c2.715-2.783,6.438-4.174,11.17-4.174s8.201,1.518,10.41,4.553s3.312,6.955,3.312,11.76
				c0,0.506-0.432,1.254-1.293,2.244c-0.863,0.99-1.504,1.486-1.924,1.486h-16.09c0.209,2.402,0.924,4.109,2.145,5.121
				c1.219,1.012,2.775,1.518,4.67,1.518c1.893,0,3.701-0.326,5.426-0.98c1.725-0.652,2.607-0.98,2.65-0.98
				c0.631,0,1.334,0.623,2.113,1.865c0.777,1.244,1.168,2.225,1.168,2.939c0,1.393-1.316,2.498-3.943,3.32
				c-2.631,0.822-5.102,1.232-7.414,1.232C682.883,415.764,678.75,414.277,676.035,411.307z M691.842,395.469
				c0-1.938-0.379-3.488-1.135-4.646c-0.758-1.16-1.895-1.74-3.408-1.74c-3.113,0-5.006,2.129-5.678,6.387H691.842z"/>
			<path i:knockout="Off" fill="#FFFFFF" d="M705.281,411.275c0-0.674,0.398-1.623,1.199-2.846c0.797-1.223,1.514-1.834,2.145-1.834
				c0.084,0,0.842,0.297,2.271,0.887s2.734,0.885,3.912,0.885c2.564,0,3.85-0.949,3.85-2.846c0-1.012-0.432-1.822-1.295-2.434
				c-0.861-0.611-1.914-1.127-3.154-1.549s-2.482-0.928-3.723-1.518s-2.293-1.559-3.154-2.908c-0.863-1.35-1.295-3.076-1.295-5.186
				c0-3.16,1.041-5.658,3.125-7.492c2.082-1.834,4.91-2.75,8.486-2.75c1.682,0,3.281,0.168,4.795,0.506
				c3.029,0.674,4.543,1.834,4.543,3.477c0,0.549-0.314,1.467-0.945,2.752c-0.633,1.285-1.221,1.928-1.768,1.928
				c-0.043,0-0.662-0.221-1.861-0.664s-2.367-0.664-3.502-0.664c-2.271,0-3.408,0.76-3.408,2.275c0,0.844,0.432,1.529,1.295,2.057
				c0.861,0.527,1.912,1.01,3.154,1.453c1.24,0.443,2.482,0.99,3.723,1.645s2.293,1.686,3.154,3.098
				c0.863,1.412,1.295,3.15,1.295,5.217c0,3.33-1.084,5.996-3.25,7.998c-2.168,2.002-4.881,3.002-8.141,3.002
				s-5.984-0.391-8.17-1.17C706.375,413.814,705.281,412.709,705.281,411.275z"/>
		</g>
		<path i:knockout="Off" fill-rule="evenodd" clip-rule="evenodd" fill="#FFFFFF" d="M109.965,441.862
			c31.407-8.983,64.035-14.634,96.487-18.868c61.657-8.041,129.616-9.073,187.796,14.523c6.244,2.528,20.901,7.437,26.407,4.191
			c6.736-3.975,6.396-9.071,6.169-12.387c-1.431-38.854-5.631-122.285-5.631-122.285s-2.9-63.199,2.017-98.804
			c6.476-4.29,13.94-12.213,15.819-24.771c0.11-20.291,2.009-28.714,12.989-44.916c3.854-5.688,13.487-16.717,8.02-23.186
			c-5.674-6.726-9.197,4.886-12.023,8.587c-2.474,3.226-17.329,22.227-20.995,18.121c-3.779-4.224,20.493-48.896,14.438-57.3
			c-6.38-8.861-14.438,16.224-15.376,18.246c-4.735,9.861-8.797,19.925-12.403,30.129c0.024,0.655-2.798,1.611-3.568,0.772
			c-0.05-8.318-0.784-15.668-0.349-27.106c0.518-13.507,0.719-37.242-7.842-36.446c-9.09,0.841,0.527,59.124-9.012,63.058
			c-7.18,2.962-11.774-20.318-13.096-25.151c-2.205-8.042-3.128-26.645-10.223-27.75c-10.275-1.6-5.912,14.283-4.989,19.314
			c1.491,8.112,15.234,64.003,5.894,68.11c-6.41,2.82-16.757-11.991-23.945-15.932c-4.698-2.595-21.447-6.646-20.938,0.76
			c0.253,3.624,8.955,6.369,11.976,8.771c13.78,10.961,29.495,33.696,42.151,42.672c3.807,3.61,8.26,5.774,12.52,7.083
			c1.157,3.325,2.09,7.029,2.768,11.204c3.632,41.18,5.598,95.591,6.648,138.271c-12.672-27.533-30.098-53.511-47.707-77.512
			c-9.028-12.302-18.492-24.45-28.415-36.253c3.315-5.333,6.507-15.12,1.566-26.35c-8.939-14.438-11.34-21.165-10.752-37.004
			c0.2-5.563,2.136-17.203-4.617-19.631c-7.013-2.517-4.356,7.112-4.717,10.86c-0.32,3.269-2.407,22.632-6.839,21.173
			c-4.557-1.508-7.194-42.812-15.23-46.375c-8.469-3.755-3.021,17.236-2.794,19.037c1.015,8.871,2.615,17.618,4.598,26.29
			c0.306,0.453-1.274,2.251-2.187,1.964c-3.736-5.881-7.523-10.811-12.297-19.092c-5.643-9.792-18.939-27.771-22.348-21.329
			c-2.723,5.208,24.301,39.64,22.222,46.876c-1.685,5.886-17.386-9.745-20.469-12.647c-5.149-4.827-14.074-17.658-19.589-15.638
			c-8.009,2.939,2.146,12.478,5.049,15.674c4.658,5.173,39.258,39.373,34.451,45.991c-3.301,4.535-17.207-1.876-24.066-1.821
			c-4.487,0.029-18.167,3.781-14.514,8.837c1.793,2.467,9.182,0.97,12.396,1.474c14.646,2.324,35.9,12.217,48.866,13.573
			c5.126,1.256,10.004,0.695,14.033-0.42c7.59,9.265,14.933,18.704,22.046,28.226c19.904,26.631,39.447,56.1,52.324,87.424
			c-23.391-21.774-51.482-39.693-78.779-55.49c-13.605-7.872-27.598-15.364-41.85-22.364c-0.446-4.93-3.49-14.058-13.475-19.21
			c-13.152-4.656-18.219-7.736-26.412-18.191c-2.875-3.664-8.006-12.118-13.358-10.202c-5.566,1.986,1.228,6.792,3.028,9.382
			c1.581,2.25,10.767,15.733,7.325,17.074c-3.534,1.381-27.419-23.729-34.149-21.886c-7.105,1.944,7.478,12.595,8.598,13.631
			c5.391,5.169,11.064,9.947,16.935,14.487c0.429,0.124,0.447,2.094-0.253,2.379c-5.424-1.853-10.342-3.062-17.67-5.915
			c-8.666-3.378-22.387-7.744-20.95-1.857c1.187,4.729,31.995,12.583,34.658,18.293c2.158,4.641-15.692,2.682-19.107,2.41
			c-5.681-0.454-17.966-4.093-20.179,0.049c-3.211,5.989,8.023,6.879,11.492,7.447c5.576,0.914,44.773,5.053,45.463,11.758
			c0.472,4.605-11.329,7.646-15.414,11.205c-2.675,2.322-8.855,11.749-3.933,13.111c2.403,0.66,6.03-4.096,8.229-5.418
			c10.037-6.039,28.119-10.617,36.627-16.414c2.32-1.129,4.211-2.659,5.751-4.325c10.013,5.148,19.923,10.466,29.641,15.981
			c29.134,16.534,59.161,35.895,83.474,59.647c-35.57-16.829-75.028-26.577-113.729-33.131c-35.726-6.04-72.59-9.952-109.184-9.534
			c-2.641,0.027-15.041-0.286-15.391,4.57c-0.324,4.746,12.068,5.262,14.695,5.23c30.279-0.342,60.566,2.812,90.244,7.269
			c36.44,5.474,74.206,14.47,108.05,30.292c-34.356-9.177-70.597-12.68-105.837-13.72c-36.276-1.063-73.346,0.135-109.489,5.583
			c-2.615,0.395-14.927,1.781-14.521,6.637c0.406,4.744,12.742,3.549,15.34,3.157c29.906-4.502,60.361-5.56,90.4-5.223
			c38.178,0.421,78.346,4.368,115.3,16.277c-36.626-3-74.001-0.962-109.999,3.112c-39.306,4.455-79.049,11.253-117.001,22.111
			c-2.738,0.783-15.748,4.027-14.405,8.758C94.165,445.703,107.246,442.639,109.965,441.862z"/>
	</g>
</g>
</svg>
