<?xml version="1.0" encoding="UTF-8"?>
<svg xmlns="http://www.w3.org/2000/svg" xmlns:xlink="http://www.w3.org/1999/xlink" width="357pt" height="357pt" viewBox="0 0 357 357" version="1.1">
<g id="surface2563">
<path style="fill-rule:evenodd;fill:rgb(87.8%,100%,100%);fill-opacity:1;stroke-width:0.4;stroke-linecap:butt;stroke-linejoin:round;stroke:rgb(0%,0%,0%);stroke-opacity:1;stroke-miterlimit:10;" d="M 192 704 L 304 768 L 368 752 L 400 640 L 288 512 L 176 608 Z M 192 704 " transform="matrix(1,0,0,-1,-95,833)"/>
<path style="fill-rule:evenodd;fill:rgb(100%,75.3%,79.6%);fill-opacity:1;stroke-width:0.8;stroke-linecap:butt;stroke-linejoin:round;stroke:rgb(0%,0%,0%);stroke-opacity:1;stroke-miterlimit:10;" d="M 128 608 L 128 560 L 160 544 L 192 560 L 224 512 L 304 480 L 352 544 L 400 560 L 384 608 L 432 640 L 448 704 L 400 752 L 336 768 L 320 800 Z M 128 608 " transform="matrix(1,0,0,-1,-95,833)"/>
<path style="fill:none;stroke-width:0.4;stroke-linecap:butt;stroke-linejoin:round;stroke:rgb(0%,0%,0%);stroke-opacity:1;stroke-miterlimit:10;" d="M 192 704 L 304 768 L 368 752 L 400 640 L 288 512 L 176 608 Z M 192 704 " transform="matrix(1,0,0,-1,-95,833)"/>
<path style="fill-rule:evenodd;fill:rgb(100%,75.3%,79.6%);fill-opacity:1;stroke-width:0.8;stroke-linecap:butt;stroke-linejoin:round;stroke:rgb(0%,0%,0%);stroke-opacity:1;stroke-miterlimit:10;" d="M 128 672 L 96 688 L 96 736 L 128 768 L 96 800 L 144 832 L 192 816 L 208 832 L 256 832 L 256 800 Z M 128 672 " transform="matrix(1,0,0,-1,-95,833)"/>
<path style=" stroke:none;fill-rule:evenodd;fill:rgb(0%,0%,0%);fill-opacity:1;" d="M 100 97 C 100 93 94 93 94 97 C 94 101 100 101 100 97 Z M 100 97 "/>
<path style=" stroke:none;fill-rule:evenodd;fill:rgb(0%,0%,0%);fill-opacity:1;" d="M 100 161 C 100 157 94 157 94 161 C 94 165 100 165 100 161 Z M 100 161 "/>
<path style=" stroke:none;fill-rule:evenodd;fill:rgb(0%,0%,0%);fill-opacity:1;" d="M 100 225 C 100 221 94 221 94 225 C 94 229 100 229 100 225 Z M 100 225 "/>
<path style=" stroke:none;fill-rule:evenodd;fill:rgb(0%,0%,0%);fill-opacity:1;" d="M 100 289 C 100 285 94 285 94 289 C 94 293 100 293 100 289 Z M 100 289 "/>
<path style=" stroke:none;fill-rule:evenodd;fill:rgb(0%,0%,0%);fill-opacity:1;" d="M 164 289 C 164 285 158 285 158 289 C 158 293 164 293 164 289 Z M 164 289 "/>
<path style=" stroke:none;fill-rule:evenodd;fill:rgb(0%,0%,0%);fill-opacity:1;" d="M 164 225 C 164 221 158 221 158 225 C 158 229 164 229 164 225 Z M 164 225 "/>
<path style=" stroke:none;fill-rule:evenodd;fill:rgb(0%,0%,0%);fill-opacity:1;" d="M 164 161 C 164 157 158 157 158 161 C 158 165 164 165 164 161 Z M 164 161 "/>
<path style=" stroke:none;fill-rule:evenodd;fill:rgb(0%,0%,0%);fill-opacity:1;" d="M 164 97 C 164 93 158 93 158 97 C 158 101 164 101 164 97 Z M 164 97 "/>
<path style=" stroke:none;fill-rule:evenodd;fill:rgb(0%,0%,0%);fill-opacity:1;" d="M 228 97 C 228 93 222 93 222 97 C 222 101 228 101 228 97 Z M 228 97 "/>
<path style=" stroke:none;fill-rule:evenodd;fill:rgb(0%,0%,0%);fill-opacity:1;" d="M 228 161 C 228 157 222 157 222 161 C 222 165 228 165 228 161 Z M 228 161 "/>
<path style=" stroke:none;fill-rule:evenodd;fill:rgb(0%,0%,0%);fill-opacity:1;" d="M 228 225 C 228 221 222 221 222 225 C 222 229 228 229 228 225 Z M 228 225 "/>
<path style=" stroke:none;fill-rule:evenodd;fill:rgb(0%,0%,0%);fill-opacity:1;" d="M 228 289 C 228 285 222 285 222 289 C 222 293 228 293 228 289 Z M 228 289 "/>
<path style=" stroke:none;fill-rule:evenodd;fill:rgb(0%,0%,0%);fill-opacity:1;" d="M 292 289 C 292 285 286 285 286 289 C 286 293 292 293 292 289 Z M 292 289 "/>
<path style=" stroke:none;fill-rule:evenodd;fill:rgb(0%,0%,0%);fill-opacity:1;" d="M 292 225 C 292 221 286 221 286 225 C 286 229 292 229 292 225 Z M 292 225 "/>
<path style=" stroke:none;fill-rule:evenodd;fill:rgb(0%,0%,0%);fill-opacity:1;" d="M 292 161 C 292 157 286 157 286 161 C 286 165 292 165 292 161 Z M 292 161 "/>
<path style=" stroke:none;fill-rule:evenodd;fill:rgb(0%,0%,0%);fill-opacity:1;" d="M 292 97 C 292 93 286 93 286 97 C 286 101 292 101 292 97 Z M 292 97 "/>
<path style=" stroke:none;fill-rule:evenodd;fill:rgb(0%,0%,0%);fill-opacity:1;" d="M 292 33 C 292 29 286 29 286 33 C 286 37 292 37 292 33 Z M 292 33 "/>
<path style=" stroke:none;fill-rule:evenodd;fill:rgb(0%,0%,0%);fill-opacity:1;" d="M 228 33 C 228 29 222 29 222 33 C 222 37 228 37 228 33 Z M 228 33 "/>
<path style=" stroke:none;fill-rule:evenodd;fill:rgb(0%,0%,0%);fill-opacity:1;" d="M 164 33 C 164 29 158 29 158 33 C 158 37 164 37 164 33 Z M 164 33 "/>
<path style=" stroke:none;fill-rule:evenodd;fill:rgb(0%,0%,0%);fill-opacity:1;" d="M 100 33 C 100 29 94 29 94 33 C 94 37 100 37 100 33 Z M 100 33 "/>
<path style=" stroke:none;fill-rule:evenodd;fill:rgb(0%,0%,0%);fill-opacity:1;" d="M 36 33 C 36 29 30 29 30 33 C 30 37 36 37 36 33 Z M 36 33 "/>
<path style=" stroke:none;fill-rule:evenodd;fill:rgb(0%,0%,0%);fill-opacity:1;" d="M 36 97 C 36 93 30 93 30 97 C 30 101 36 101 36 97 Z M 36 97 "/>
<path style=" stroke:none;fill-rule:evenodd;fill:rgb(0%,0%,0%);fill-opacity:1;" d="M 36 161 C 36 157 30 157 30 161 C 30 165 36 165 36 161 Z M 36 161 "/>
<path style=" stroke:none;fill-rule:evenodd;fill:rgb(0%,0%,0%);fill-opacity:1;" d="M 36 225 C 36 221 30 221 30 225 C 30 229 36 229 36 225 Z M 36 225 "/>
<path style=" stroke:none;fill-rule:evenodd;fill:rgb(0%,0%,0%);fill-opacity:1;" d="M 36 289 C 36 285 30 285 30 289 C 30 293 36 293 36 289 Z M 36 289 "/>
<path style=" stroke:none;fill-rule:evenodd;fill:rgb(0%,0%,0%);fill-opacity:1;" d="M 356 289 C 356 285 350 285 350 289 C 350 293 356 293 356 289 Z M 356 289 "/>
<path style=" stroke:none;fill-rule:evenodd;fill:rgb(0%,0%,0%);fill-opacity:1;" d="M 356 225 C 356 221 350 221 350 225 C 350 229 356 229 356 225 Z M 356 225 "/>
<path style=" stroke:none;fill-rule:evenodd;fill:rgb(0%,0%,0%);fill-opacity:1;" d="M 356 161 C 356 157 350 157 350 161 C 350 165 356 165 356 161 Z M 356 161 "/>
<path style=" stroke:none;fill-rule:evenodd;fill:rgb(0%,0%,0%);fill-opacity:1;" d="M 356 97 C 356 93 350 93 350 97 C 350 101 356 101 356 97 Z M 356 97 "/>
<path style=" stroke:none;fill-rule:evenodd;fill:rgb(0%,0%,0%);fill-opacity:1;" d="M 356 33 C 356 29 350 29 350 33 C 350 37 356 37 356 33 Z M 356 33 "/>
<path style=" stroke:none;fill-rule:evenodd;fill:rgb(0%,0%,0%);fill-opacity:1;" d="M 36 353 C 36 349 30 349 30 353 C 30 357 36 357 36 353 Z M 36 353 "/>
<path style=" stroke:none;fill-rule:evenodd;fill:rgb(0%,0%,0%);fill-opacity:1;" d="M 100 353 C 100 349 94 349 94 353 C 94 357 100 357 100 353 Z M 100 353 "/>
<path style=" stroke:none;fill-rule:evenodd;fill:rgb(0%,0%,0%);fill-opacity:1;" d="M 164 353 C 164 349 158 349 158 353 C 158 357 164 357 164 353 Z M 164 353 "/>
<path style=" stroke:none;fill-rule:evenodd;fill:rgb(0%,0%,0%);fill-opacity:1;" d="M 228 353 C 228 349 222 349 222 353 C 222 357 228 357 228 353 Z M 228 353 "/>
<path style=" stroke:none;fill-rule:evenodd;fill:rgb(0%,0%,0%);fill-opacity:1;" d="M 292 353 C 292 349 286 349 286 353 C 286 357 292 357 292 353 Z M 292 353 "/>
<path style=" stroke:none;fill-rule:evenodd;fill:rgb(0%,0%,0%);fill-opacity:1;" d="M 356 353 C 356 349 350 349 350 353 C 350 357 356 357 356 353 Z M 356 353 "/>
<path style="fill:none;stroke-width:0.4;stroke-linecap:butt;stroke-linejoin:round;stroke:rgb(0%,0%,0%);stroke-opacity:1;stroke-miterlimit:10;" d="M 112 592 L 336 816 " transform="matrix(1,0,0,-1,-95,833)"/>
<path style="fill:none;stroke-width:0.4;stroke-linecap:butt;stroke-linejoin:round;stroke:rgb(0%,0%,0%);stroke-opacity:1;stroke-miterlimit:10;" d="M 112 656 L 272 816 " transform="matrix(1,0,0,-1,-95,833)"/>
<path style="fill:none;stroke-width:0.8;stroke-linecap:butt;stroke-linejoin:round;stroke:rgb(0%,0%,0%);stroke-opacity:1;stroke-miterlimit:10;" d="M 192 704 L 176 608 L 288 512 L 400 640 L 368 752 L 304 768 Z M 192 704 " transform="matrix(1,0,0,-1,-95,833)"/>
<path style="fill-rule:evenodd;fill:rgb(25.1%,87.8%,81.6%);fill-opacity:1;stroke-width:0.4;stroke-linecap:butt;stroke-linejoin:round;stroke:rgb(0%,0%,0%);stroke-opacity:1;stroke-miterlimit:10;" d="M 192 704 L 185.601562 665.601562 L 266.667969 746.667969 Z M 192 704 " transform="matrix(1,0,0,-1,-95,833)"/>
<path style="fill:none;stroke-width:2;stroke-linecap:butt;stroke-linejoin:round;stroke:rgb(0%,0%,100%);stroke-opacity:1;stroke-miterlimit:10;" d="M 144 624 L 304 784 " transform="matrix(1,0,0,-1,-95,833)"/>
</g>
</svg>
