<?xml version="1.0" encoding="UTF-8"?>
<svg xmlns="http://www.w3.org/2000/svg" xmlns:xlink="http://www.w3.org/1999/xlink" width="401pt" height="385pt" viewBox="0 0 401 385" version="1.1">
<g id="surface2303">
<path style="fill-rule:evenodd;fill:rgb(100%,75.3%,79.6%);fill-opacity:1;stroke-width:0.4;stroke-linecap:butt;stroke-linejoin:round;stroke:rgb(0%,0%,0%);stroke-opacity:1;stroke-miterlimit:10;" d="M 160 768 L 176 816 L 224 832 L 240 784 L 304 800 L 384 752 L 464 752 L 432 624 L 464 608 L 464 544 L 416 512 Z M 160 768 " transform="matrix(1,0,0,-1,-63,833)"/>
<path style="fill-rule:evenodd;fill:rgb(100%,75.3%,79.6%);fill-opacity:1;stroke-width:0.4;stroke-linecap:butt;stroke-linejoin:round;stroke:rgb(0%,0%,0%);stroke-opacity:1;stroke-miterlimit:10;" d="M 128 736 L 80 704 L 96 640 L 64 608 L 96 592 L 112 544 L 160 544 L 176 480 L 240 448 L 304 464 L 320 448 L 384 480 Z M 128 736 " transform="matrix(1,0,0,-1,-63,833)"/>
<path style=" stroke:none;fill-rule:evenodd;fill:rgb(0%,0%,0%);fill-opacity:1;" d="M 132 97 C 132 93 126 93 126 97 C 126 101 132 101 132 97 Z M 132 97 "/>
<path style=" stroke:none;fill-rule:evenodd;fill:rgb(0%,0%,0%);fill-opacity:1;" d="M 132 161 C 132 157 126 157 126 161 C 126 165 132 165 132 161 Z M 132 161 "/>
<path style=" stroke:none;fill-rule:evenodd;fill:rgb(0%,0%,0%);fill-opacity:1;" d="M 132 225 C 132 221 126 221 126 225 C 126 229 132 229 132 225 Z M 132 225 "/>
<path style=" stroke:none;fill-rule:evenodd;fill:rgb(0%,0%,0%);fill-opacity:1;" d="M 132 289 C 132 285 126 285 126 289 C 126 293 132 293 132 289 Z M 132 289 "/>
<path style=" stroke:none;fill-rule:evenodd;fill:rgb(0%,0%,0%);fill-opacity:1;" d="M 196 289 C 196 285 190 285 190 289 C 190 293 196 293 196 289 Z M 196 289 "/>
<path style=" stroke:none;fill-rule:evenodd;fill:rgb(0%,0%,0%);fill-opacity:1;" d="M 196 225 C 196 221 190 221 190 225 C 190 229 196 229 196 225 Z M 196 225 "/>
<path style=" stroke:none;fill-rule:evenodd;fill:rgb(0%,0%,0%);fill-opacity:1;" d="M 196 161 C 196 157 190 157 190 161 C 190 165 196 165 196 161 Z M 196 161 "/>
<path style=" stroke:none;fill-rule:evenodd;fill:rgb(0%,0%,0%);fill-opacity:1;" d="M 196 97 C 196 93 190 93 190 97 C 190 101 196 101 196 97 Z M 196 97 "/>
<path style=" stroke:none;fill-rule:evenodd;fill:rgb(0%,0%,0%);fill-opacity:1;" d="M 260 97 C 260 93 254 93 254 97 C 254 101 260 101 260 97 Z M 260 97 "/>
<path style=" stroke:none;fill-rule:evenodd;fill:rgb(0%,0%,0%);fill-opacity:1;" d="M 260 161 C 260 157 254 157 254 161 C 254 165 260 165 260 161 Z M 260 161 "/>
<path style=" stroke:none;fill-rule:evenodd;fill:rgb(0%,0%,0%);fill-opacity:1;" d="M 260 225 C 260 221 254 221 254 225 C 254 229 260 229 260 225 Z M 260 225 "/>
<path style=" stroke:none;fill-rule:evenodd;fill:rgb(0%,0%,0%);fill-opacity:1;" d="M 260 289 C 260 285 254 285 254 289 C 254 293 260 293 260 289 Z M 260 289 "/>
<path style=" stroke:none;fill-rule:evenodd;fill:rgb(0%,0%,0%);fill-opacity:1;" d="M 324 289 C 324 285 318 285 318 289 C 318 293 324 293 324 289 Z M 324 289 "/>
<path style=" stroke:none;fill-rule:evenodd;fill:rgb(0%,0%,0%);fill-opacity:1;" d="M 324 225 C 324 221 318 221 318 225 C 318 229 324 229 324 225 Z M 324 225 "/>
<path style=" stroke:none;fill-rule:evenodd;fill:rgb(0%,0%,0%);fill-opacity:1;" d="M 324 161 C 324 157 318 157 318 161 C 318 165 324 165 324 161 Z M 324 161 "/>
<path style=" stroke:none;fill-rule:evenodd;fill:rgb(0%,0%,0%);fill-opacity:1;" d="M 324 97 C 324 93 318 93 318 97 C 318 101 324 101 324 97 Z M 324 97 "/>
<path style=" stroke:none;fill-rule:evenodd;fill:rgb(0%,0%,0%);fill-opacity:1;" d="M 324 33 C 324 29 318 29 318 33 C 318 37 324 37 324 33 Z M 324 33 "/>
<path style=" stroke:none;fill-rule:evenodd;fill:rgb(0%,0%,0%);fill-opacity:1;" d="M 260 33 C 260 29 254 29 254 33 C 254 37 260 37 260 33 Z M 260 33 "/>
<path style=" stroke:none;fill-rule:evenodd;fill:rgb(0%,0%,0%);fill-opacity:1;" d="M 196 33 C 196 29 190 29 190 33 C 190 37 196 37 196 33 Z M 196 33 "/>
<path style=" stroke:none;fill-rule:evenodd;fill:rgb(0%,0%,0%);fill-opacity:1;" d="M 132 33 C 132 29 126 29 126 33 C 126 37 132 37 132 33 Z M 132 33 "/>
<path style=" stroke:none;fill-rule:evenodd;fill:rgb(0%,0%,0%);fill-opacity:1;" d="M 68 33 C 68 29 62 29 62 33 C 62 37 68 37 68 33 Z M 68 33 "/>
<path style=" stroke:none;fill-rule:evenodd;fill:rgb(0%,0%,0%);fill-opacity:1;" d="M 68 97 C 68 93 62 93 62 97 C 62 101 68 101 68 97 Z M 68 97 "/>
<path style=" stroke:none;fill-rule:evenodd;fill:rgb(0%,0%,0%);fill-opacity:1;" d="M 68 161 C 68 157 62 157 62 161 C 62 165 68 165 68 161 Z M 68 161 "/>
<path style=" stroke:none;fill-rule:evenodd;fill:rgb(0%,0%,0%);fill-opacity:1;" d="M 68 225 C 68 221 62 221 62 225 C 62 229 68 229 68 225 Z M 68 225 "/>
<path style=" stroke:none;fill-rule:evenodd;fill:rgb(0%,0%,0%);fill-opacity:1;" d="M 68 289 C 68 285 62 285 62 289 C 62 293 68 293 68 289 Z M 68 289 "/>
<path style=" stroke:none;fill-rule:evenodd;fill:rgb(0%,0%,0%);fill-opacity:1;" d="M 388 289 C 388 285 382 285 382 289 C 382 293 388 293 388 289 Z M 388 289 "/>
<path style=" stroke:none;fill-rule:evenodd;fill:rgb(0%,0%,0%);fill-opacity:1;" d="M 388 225 C 388 221 382 221 382 225 C 382 229 388 229 388 225 Z M 388 225 "/>
<path style=" stroke:none;fill-rule:evenodd;fill:rgb(0%,0%,0%);fill-opacity:1;" d="M 388 161 C 388 157 382 157 382 161 C 382 165 388 165 388 161 Z M 388 161 "/>
<path style=" stroke:none;fill-rule:evenodd;fill:rgb(0%,0%,0%);fill-opacity:1;" d="M 388 97 C 388 93 382 93 382 97 C 382 101 388 101 388 97 Z M 388 97 "/>
<path style=" stroke:none;fill-rule:evenodd;fill:rgb(0%,0%,0%);fill-opacity:1;" d="M 388 33 C 388 29 382 29 382 33 C 382 37 388 37 388 33 Z M 388 33 "/>
<path style=" stroke:none;fill-rule:evenodd;fill:rgb(0%,0%,0%);fill-opacity:1;" d="M 68 353 C 68 349 62 349 62 353 C 62 357 68 357 68 353 Z M 68 353 "/>
<path style=" stroke:none;fill-rule:evenodd;fill:rgb(0%,0%,0%);fill-opacity:1;" d="M 132 353 C 132 349 126 349 126 353 C 126 357 132 357 132 353 Z M 132 353 "/>
<path style=" stroke:none;fill-rule:evenodd;fill:rgb(0%,0%,0%);fill-opacity:1;" d="M 196 353 C 196 349 190 349 190 353 C 190 357 196 357 196 353 Z M 196 353 "/>
<path style=" stroke:none;fill-rule:evenodd;fill:rgb(0%,0%,0%);fill-opacity:1;" d="M 260 353 C 260 349 254 349 254 353 C 254 357 260 357 260 353 Z M 260 353 "/>
<path style=" stroke:none;fill-rule:evenodd;fill:rgb(0%,0%,0%);fill-opacity:1;" d="M 324 353 C 324 349 318 349 318 353 C 318 357 324 357 324 353 Z M 324 353 "/>
<path style=" stroke:none;fill-rule:evenodd;fill:rgb(0%,0%,0%);fill-opacity:1;" d="M 388 353 C 388 349 382 349 382 353 C 382 357 388 357 388 353 Z M 388 353 "/>
<path style="fill:none;stroke-width:0.4;stroke-linecap:butt;stroke-linejoin:round;stroke:rgb(0%,0%,0%);stroke-opacity:1;stroke-miterlimit:10;" d="M 112 752 L 400 464 " transform="matrix(1,0,0,-1,-63,833)"/>
<path style="fill:none;stroke-width:0.4;stroke-linecap:butt;stroke-linejoin:round;stroke:rgb(0%,0%,0%);stroke-opacity:1;stroke-miterlimit:10;" d="M 144 784 L 432 496 " transform="matrix(1,0,0,-1,-63,833)"/>
<path style="fill:none;stroke-width:1.2;stroke-linecap:butt;stroke-linejoin:round;stroke:rgb(0%,0%,0%);stroke-opacity:1;stroke-miterlimit:10;" d="M 192 704 L 304 768 L 368 752 L 400 640 L 288 512 L 176 608 Z M 192 704 " transform="matrix(1,0,0,-1,-63,833)"/>
<path style="fill:none;stroke-width:1.2;stroke-linecap:butt;stroke-linejoin:round;stroke:rgb(0%,0%,100%);stroke-opacity:1;stroke-miterlimit:10;" d="M 256 816 L 128 560 " transform="matrix(1,0,0,-1,-63,833)"/>
<path style="fill-rule:evenodd;fill:rgb(25.1%,87.8%,81.6%);fill-opacity:1;stroke-width:1.2;stroke-linecap:butt;stroke-linejoin:round;stroke:rgb(0%,0%,0%);stroke-opacity:1;stroke-miterlimit:10;" d="M 192 704 L 188 680 L 203.199219 710.398438 Z M 192 704 " transform="matrix(1,0,0,-1,-63,833)"/>
</g>
</svg>
